# Tetrahedral mesh generated using fTetWild (wildmeshing) from 011_banana/google_16k/nontextured.ply

# 174 vertices
v -0.042583 -0.027941 0.015316
v -0.042082 -0.039957 0.020942
v -0.041568 -0.014656 0.016191
v -0.041133 -0.020501 0.023528
v -0.040768 -0.054303 0.014424
v -0.039544 -0.004651 0.021933
v -0.038306 -0.067335 0.014413
v -0.036643 -0.058285 0.006885
v -0.038410 -0.043619 0.028403
v -0.038724 -0.060827 0.021649
v -0.038259 -0.037467 0.006194
v -0.036959 0.008743 0.017479
v -0.036313 -0.003034 0.028611
v -0.034774 -0.012500 0.032235
v -0.037569 -0.024821 0.030492
v -0.034056 0.011761 0.026096
v -0.032217 -0.035923 0.032733
v -0.034930 -0.071090 0.008704
v -0.033128 -0.079491 0.016957
v -0.033274 -0.066284 0.026980
v -0.033113 -0.075478 0.022245
v -0.032228 0.023845 0.018558
v -0.033774 -0.031941 0.001353
v -0.033110 -0.045396 0.001223
v -0.031175 -0.083334 0.011015
v -0.031896 -0.067154 0.003722
v -0.031302 -0.015515 0.000893
v -0.031475 0.013519 0.008979
v -0.027211 -0.063000 0.000372
v -0.029369 -0.087419 0.015783
v -0.028921 0.000658 0.001768
v -0.028063 -0.084558 0.021533
v -0.026654 -0.076006 0.026372
v -0.024466 0.035738 0.011651
v -0.026763 0.030699 0.026828
v -0.025570 -0.092088 0.018101
v -0.025558 -0.058331 0.030744
v -0.026674 -0.092160 0.012110
v -0.025203 -0.033486 -0.000061
v -0.024008 0.041711 0.019841
v -0.024522 0.024227 0.033137
v -0.025811 -0.072641 0.001496
v -0.024017 -0.085989 0.004388
v -0.022165 -0.091351 0.020821
v -0.022544 -0.095640 0.016535
v -0.021818 -0.095583 0.009812
v -0.021251 -0.001522 0.000576
v -0.022335 0.019701 0.001295
v -0.023315 -0.083877 0.024228
v -0.022333 -0.001033 0.035496
v -0.018992 -0.093392 0.005502
v -0.018147 -0.051057 0.031792
v -0.017855 -0.069906 0.029084
v -0.017334 -0.095532 0.018167
v -0.017020 0.049297 0.026579
v -0.017826 -0.028981 0.034289
v -0.016429 0.042343 0.032870
v -0.013118 0.058059 0.017434
v -0.015885 -0.084739 0.003952
v -0.015158 -0.009944 0.035328
v -0.015768 -0.095291 0.012248
v -0.016813 -0.057060 0.001189
v -0.015022 -0.089531 0.021932
v -0.015059 -0.019290 0.002785
v -0.013623 -0.092769 0.007204
v -0.012391 -0.093376 0.017526
v -0.011442 -0.077955 0.023317
v -0.009946 0.046373 0.001930
v -0.010515 -0.092808 0.012764
v -0.010369 0.033384 0.000362
v -0.009708 -0.089639 0.009751
v -0.010780 -0.062681 0.003960
v -0.011628 -0.041859 0.028363
v -0.009159 -0.085094 0.018426
v -0.009651 -0.034636 0.006188
v -0.010794 -0.062216 0.025605
v -0.009696 0.059594 0.025536
v -0.008666 -0.077472 0.007724
v -0.009031 0.051737 0.033398
v -0.008159 0.009250 0.003333
v -0.007527 -0.080039 0.013288
v -0.007128 -0.003972 0.031139
v -0.006961 -0.052235 0.020024
v -0.009070 0.055286 0.007596
v -0.006571 -0.065486 0.018300
v -0.005620 -0.004437 0.007123
v -0.000744 0.054526 0.000748
v -0.003400 -0.007617 0.014557
v -0.003282 -0.007747 0.023778
v -0.002619 0.046619 0.035495
v -0.000573 0.030412 0.002348
v -0.001437 0.028799 0.035878
v -0.000947 0.069683 0.015124
v -0.000501 0.063342 0.032015
v -0.000702 0.008295 0.028260
v 0.000571 0.013540 0.008134
v 0.000483 0.070227 0.022977
v 0.000584 0.004142 0.020909
v 0.000680 0.044025 0.000418
v 0.005035 0.063864 0.002329
v 0.003676 0.023420 0.030834
v 0.008617 0.057767 -0.000001
v 0.005353 0.018366 0.024340
v 0.009101 0.060546 0.033858
v 0.006544 0.071757 0.028552
v 0.008881 0.038184 0.033204
v 0.007366 0.071529 0.008499
v 0.007796 0.075867 0.016118
v 0.010724 0.028946 0.013530
v 0.014242 0.038684 0.006789
v 0.011302 0.051583 0.034342
v 0.013404 0.031555 0.020833
v 0.016526 0.079487 0.018884
v 0.014636 0.070084 0.031240
v 0.017530 0.066192 0.000046
v 0.018166 0.072490 0.002747
v 0.016915 0.078595 0.010975
v 0.021694 0.053482 0.030362
v 0.019354 0.077464 0.027175
v 0.023804 0.066283 0.030035
v 0.024088 0.081549 0.014113
v 0.024817 0.068353 0.000134
v 0.024052 0.080896 0.020777
v 0.026235 0.078545 0.006261
v 0.025425 0.053204 0.004257
v 0.024198 0.046264 0.012904
v 0.027038 0.079105 0.024832
v 0.031503 0.081181 0.009816
v 0.028415 0.061976 0.001176
v 0.030074 0.061425 0.027372
v 0.028556 0.052736 0.021720
v 0.032929 0.081009 0.016513
v 0.032924 0.074485 0.001665
v 0.036850 0.077836 0.004988
v 0.034737 0.070987 0.024291
v 0.036160 0.078559 0.019914
v 0.040514 0.079350 0.009633
v 0.039519 0.064752 0.003941
v 0.042530 0.070743 0.017937
v 0.044582 0.066568 0.007844
v 0.044401 0.078194 0.012879
v 0.043431 0.073766 0.002310
v 0.049977 0.070288 0.009634
v 0.048405 0.079790 0.005741
v 0.052869 0.070658 0.003025
v 0.049514 0.073480 0.013940
v 0.054873 0.079790 0.009997
v 0.055000 0.076168 0.000852
v 0.058277 0.074104 0.012185
v 0.063396 0.080307 0.002530
v 0.063219 0.074886 -0.000244
v 0.063540 0.071011 0.006552
v 0.063846 0.071135 0.001734
v 0.063240 0.078787 0.010995
v 0.064760 0.080553 0.007372
v 0.065283 0.074281 0.010699
v 0.065780 0.075463 0.005753
v -0.022383 -0.067311 0.014149
v -0.025019 -0.035906 0.020389
v -0.013964 0.005206 0.019948
v -0.011451 0.036821 0.017433
v 0.005486 0.052434 0.017314
v 0.019247 0.067193 0.016963
v 0.008393 0.029162 0.007133
v -0.008157 -0.075152 0.020000
v -0.007078 -0.065378 0.010385
v -0.005063 -0.025945 0.020539
v 0.025735 0.074008 0.001746
v 0.012519 0.034400 0.027397
v -0.038928 -0.021021 0.008301
v -0.011947 0.030257 0.035732
v 0.037737 0.065233 0.021695
v -0.010460 -0.086109 0.007211
v 0.036688 0.059003 0.011948

# 412 tetrahedra
t 160 33 47 27
t 159 160 102 108
t 100 102 94 160
t 24 48 43 42
t 117 162 129 130
t 115 116 162 123
t 58 61 41 157
t 58 80 73 70
t 76 161 54 57
t 124 161 90 109
t 46 26 38 159
t 98 124 161 90
t 128 162 101 161
t 58 71 61 157
t 144 142 151 148
t 164 80 66 157
t 117 161 162 130
t 150 151 148 144
t 159 21 27 11
t 31 32 18 20
t 158 13 3 14
t 31 24 18 32
t 98 128 161 124
t 49 59 16 158
t 131 140 138 136
t 133 171 139 136
t 158 8 14 1
t 160 33 27 21
t 57 161 54 160
t 57 39 160 54
t 169 11 2 159
t 97 95 87 159
t 103 162 119 110
t 107 162 112 96
t 142 146 143 140
t 121 115 114 162
t 131 140 135 138
t 119 162 126 134
t 131 134 138 135
t 147 144 143 141
t 131 171 136 138
t 127 171 136 131
t 120 162 116 123
t 92 83 161 57
t 100 111 102 160
t 162 119 110 117
t 117 162 161 110
t 126 162 119 113
t 103 162 110 161
t 168 161 111 100
t 168 105 161 100
t 105 110 117 161
t 67 160 69 98
t 33 39 160 57
t 159 74 158 63
t 171 129 162 130
t 120 162 122 112
t 150 156 148 151
t 144 139 142 141
t 120 116 162 112
t 147 149 146 148
t 146 142 144 148
t 147 146 144 148
t 148 156 154 155
t 152 144 151 150
t 150 148 147 144
t 151 156 148 155
t 142 140 145 146
t 150 149 148 156
t 152 151 156 150
t 148 154 146 153
t 145 148 142 146
t 133 162 127 123
t 127 162 120 123
t 121 162 123 115
t 115 162 116 106
t 125 161 162 124
t 133 171 136 127
t 141 136 143 133
t 141 139 136 133
t 141 142 136 139
t 141 143 136 142
t 143 140 136 142
t 167 123 115 121
t 101 99 161 162
t 99 106 162 115
t 99 115 162 114
t 128 121 123 132
t 128 114 162 121
t 128 162 123 121
t 160 90 69 98
t 128 133 141 132
t 137 133 139 141
t 67 161 86 83
t 160 161 90 98
t 98 160 161 67
t 98 101 161 128
t 128 114 101 162
t 101 99 162 114
t 109 125 161 108
t 137 162 128 124
t 137 171 139 133
t 137 141 139 144
t 16 14 158 8
t 71 157 58 77
t 37 35 44 43
t 58 62 73 48
t 58 48 73 80
t 158 51 75 72
t 158 159 63 38
t 91 100 161 105
t 158 14 16 13
t 65 60 62 68
t 55 51 16 158
t 24 157 32 48
t 58 62 70 73
t 58 48 43 62
t 53 43 45 44
t 29 18 31 24
t 7 157 23 158
t 24 48 32 31
t 29 31 43 24
t 65 73 68 62
t 24 31 43 48
t 63 158 61 74
t 158 74 82 165
t 158 16 55 59
t 74 166 158 82
t 157 24 32 18
t 159 81 166 88
t 159 108 95 90
t 165 77 84 157
t 158 159 2 3
t 81 158 72 55
t 19 52 157 36
t 166 74 158 159
t 158 0 1 3
t 158 26 38 22
t 158 159 3 13
t 3 158 14 1
t 63 158 38 61
t 50 42 45 64
t 58 43 42 60
t 6 157 18 24
t 29 43 31 35
t 45 44 43 37
t 42 24 37 43
t 58 43 60 62
t 58 60 42 64
t 58 70 60 64
t 70 64 68 60
t 70 62 60 68
t 70 62 68 73
t 50 64 58 42
t 65 53 62 60
t 58 60 70 62
t 58 80 70 77
t 64 42 45 60
t 172 70 58 64
t 82 166 158 72
t 6 157 20 18
t 158 22 38 23
t 90 161 108 109
t 67 47 69 160
t 67 83 160 161
t 158 19 16 8
t 46 159 63 79
t 158 22 23 10
t 25 17 41 157
t 158 9 8 1
t 166 72 81 158
t 71 74 61 158
t 10 158 22 169
t 17 157 42 41
t 42 157 58 41
t 84 157 164 75
t 172 58 70 77
t 42 48 157 24
t 28 41 61 157
t 158 165 157 71
t 158 61 157 38
t 158 61 71 157
t 158 51 16 36
t 158 81 159 59
t 158 13 16 49
t 158 22 169 26
t 158 26 159 38
t 7 10 4 158
t 23 157 28 38
t 67 33 160 83
t 30 169 26 159
t 83 99 161 86
t 159 166 81 158
t 88 159 94 97
t 159 12 40 15
t 89 110 161 103
t 161 100 160 111
t 98 67 161 86
t 54 160 34 39
t 87 159 166 88
t 97 108 159 102
t 85 159 74 87
t 85 95 79 159
t 86 161 101 99
t 86 101 161 98
t 46 26 159 30
t 67 47 160 33
t 30 27 159 47
t 13 159 40 49
t 47 46 159 30
t 159 160 69 47
t 92 99 161 83
t 106 162 92 99
t 162 99 161 92
t 46 159 79 69
t 159 90 79 69
t 54 56 34 160
t 96 161 57 92
t 89 160 161 91
t 13 159 49 158
t 118 162 104 112
t 49 159 59 158
t 91 161 110 105
t 15 159 21 34
t 159 102 94 97
t 5 11 159 2
t 91 81 59 159
t 12 3 159 13
t 5 159 3 2
t 12 159 3 5
t 88 87 159 97
t 91 159 59 49
t 15 5 159 12
t 159 27 169 11
t 159 27 30 169
t 159 21 11 15
t 46 47 159 69
t 88 81 94 159
t 159 87 85 95
t 160 111 102 108
t 159 160 91 94
t 76 93 161 96
t 89 54 160 56
t 89 161 110 91
t 159 160 90 69
t 160 108 90 161
t 159 108 90 160
t 97 159 108 95
t 21 33 39 160
t 159 160 27 21
t 94 160 91 100
t 100 160 91 161
t 160 102 94 159
t 160 111 108 161
t 40 49 159 170
t 104 96 162 93
t 57 160 33 83
t 57 160 83 161
t 124 162 128 161
t 160 27 47 159
t 143 141 144 142
t 93 103 162 113
t 93 162 161 96
t 52 32 157 48
t 71 165 157 77
t 157 48 58 80
t 58 157 80 77
t 55 72 51 158
t 9 157 19 20
t 9 157 20 6
t 163 109 90 108
t 79 85 159 63
t 5 11 15 159
t 158 9 157 19
t 158 157 36 19
t 19 8 158 9
t 19 158 16 36
t 131 120 127 162
t 134 135 131 126
t 131 120 162 122
t 126 131 162 122
t 40 34 56 160
t 159 21 34 160
t 49 159 170 91
t 145 140 142 138
t 170 89 91 160
t 170 159 160 91
t 170 160 159 40
t 46 159 38 63
t 164 157 66 75
t 66 73 80 164
t 157 52 66 75
t 164 157 84 80
t 84 77 80 157
t 37 29 35 43
t 24 42 17 157
t 24 43 29 37
t 82 165 157 158
t 165 158 74 71
t 157 51 75 158
t 51 157 36 158
t 82 157 75 158
t 112 162 104 96
t 13 40 159 12
t 45 43 60 42
t 45 43 42 37
t 104 113 162 118
t 96 161 92 162
t 104 93 162 113
t 162 122 112 118
t 126 162 118 122
t 126 118 162 113
t 157 32 20 18
t 157 20 32 19
t 157 19 32 52
t 4 158 1 9
t 167 132 123 121
t 28 157 61 38
t 28 157 25 41
t 171 131 134 138
t 169 10 158 0
t 111 125 108 161
t 93 103 89 161
t 78 76 93 89
t 161 54 160 89
t 78 54 76 89
t 93 89 76 161
t 78 54 89 56
t 76 54 161 89
t 128 132 123 133
t 148 154 156 149
t 148 154 149 146
t 40 160 159 34
t 90 95 163 108
t 90 95 159 79
t 169 2 158 159
t 169 159 158 26
t 39 34 21 160
t 119 162 129 117
t 119 162 103 113
t 137 128 133 141
t 2 169 158 0
t 2 158 3 0
t 166 74 159 87
t 52 48 157 66
t 153 148 154 155
t 111 161 168 130
t 125 161 130 162
t 125 109 161 124
t 161 168 130 117
t 111 130 125 161
t 93 103 161 162
t 170 56 89 160
t 170 56 160 40
t 159 34 15 40
t 107 112 162 116
t 107 162 96 92
t 107 162 106 116
t 107 106 162 92
t 173 171 139 137
t 173 125 130 162
t 128 162 133 123
t 173 130 171 162
t 137 124 125 162
t 137 133 128 162
t 137 133 162 171
t 55 81 158 59
t 127 171 131 162
t 162 171 133 127
t 131 134 162 171
t 134 129 119 162
t 66 48 80 73
t 66 62 48 73
t 66 80 48 157
t 66 48 62 52
t 134 126 131 162
t 23 28 157 25
t 38 23 157 158
t 24 6 157 17
t 171 129 134 162
t 57 161 96 76
t 162 173 137 171
t 162 137 173 125
t 0 158 4 10
t 4 158 0 1
t 7 10 158 23
t 75 72 82 158
t 51 52 36 157
t 84 165 157 82
t 157 75 51 52
t 82 84 75 157
t 147 143 146 149
t 150 147 148 149
t 147 146 143 144
t 146 143 144 142
t 171 136 142 139
t 138 142 136 140
t 171 142 136 138
t 81 159 91 94
t 45 43 53 60
t 53 43 62 60
t 7 158 4 157
t 7 17 157 6
t 7 157 17 25
t 4 157 158 9
t 4 157 9 6
t 4 7 157 6
t 7 23 157 25
t 74 63 159 85
t 117 168 105 161
t 48 58 42 157
t 42 48 43 58
