# Tetrahedral mesh generated using fTetWild (wildmeshing) from 061_foam_brick/google_16k/nontextured.ply

# 234 vertices
v -0.044432 -0.012559 0.030495
v -0.044069 -0.000792 0.050344
v -0.044118 -0.010663 0.006879
v -0.043996 -0.020145 0.009092
v -0.043939 -0.020312 0.028635
v -0.043916 -0.016191 0.000352
v -0.043901 0.051285 0.006267
v -0.043819 -0.019873 0.002531
v -0.031843 0.006046 0.045071
v -0.043663 -0.009811 0.050777
v -0.043320 0.030177 0.050476
v -0.043555 0.053725 0.001277
v -0.043291 0.054602 0.033232
v -0.043276 -0.020986 0.050527
v -0.043222 -0.019575 0.000152
v -0.043222 0.044447 0.001281
v -0.043110 0.055816 0.003778
v -0.042892 0.053149 0.050164
v -0.042753 0.013160 0.000367
v -0.042600 0.031432 0.000490
v -0.042288 0.055813 0.000700
v -0.042325 0.053617 0.000115
v -0.041074 0.042589 -0.000038
v -0.041927 -0.014373 0.049785
v -0.038585 -0.020953 0.032362
v -0.031883 -0.020550 0.012600
v -0.038213 0.056041 0.005314
v -0.037658 -0.014046 -0.000298
v -0.033546 0.054633 0.032474
v -0.035355 0.048778 -0.000208
v -0.034210 -0.020011 0.000281
v -0.028931 0.055300 0.000257
v -0.023793 0.053935 0.039705
v -0.027475 -0.021255 0.050128
v -0.029518 0.040672 0.050121
v -0.025658 -0.019231 -0.000223
v -0.025282 0.017809 0.039571
v -0.025150 -0.005419 0.049648
v -0.025438 0.016343 0.050013
v -0.024363 -0.000930 0.049929
v -0.024847 -0.003609 0.040811
v -0.024387 0.039947 0.049236
v -0.024715 -0.020223 0.002034
v -0.024494 0.016391 0.044727
v -0.024593 0.039619 0.039283
v -0.024431 0.020242 0.049921
v -0.024430 -0.004267 0.038837
v 0.007171 0.035035 0.049171
v -0.024332 0.015187 0.039627
v -0.024167 0.036135 0.049726
v -0.030996 -0.010300 0.050159
v -0.023998 0.019594 0.046865
v -0.024040 -0.006369 0.041963
v -0.023651 -0.008612 0.049626
v -0.023231 0.016910 0.038007
v -0.023563 0.020424 0.038434
v -0.023453 0.037171 0.038512
v -0.023347 0.053639 0.050218
v -0.023261 0.040467 0.038215
v -0.023627 -0.000928 0.039148
v -0.023006 0.043033 0.049244
v -0.022714 0.034975 0.047208
v -0.023560 0.012629 0.049950
v -0.022440 0.022125 0.041547
v -0.022653 0.013232 0.038922
v -0.022272 -0.008143 0.038822
v -0.022367 0.012609 0.044819
v -0.021923 -0.004658 0.038232
v -0.022127 0.034990 0.039662
v -0.021466 0.022490 0.038399
v -0.022152 0.043359 0.038598
v -0.022037 0.023098 0.049811
v -0.021698 0.022460 0.046043
v -0.021875 0.034405 0.043456
v -0.020967 0.033077 0.049504
v -0.020527 0.035220 0.038115
v -0.020116 0.045250 0.049522
v -0.019347 -0.020661 0.038437
v -0.020748 0.001313 0.046996
v -0.020098 0.010975 0.049521
v -0.019339 0.017963 0.037771
v -0.019330 0.023522 0.039574
v -0.019624 0.044546 0.038442
v -0.019436 0.011622 0.041868
v -0.018882 -0.011052 0.049583
v -0.018677 0.002025 0.039031
v -0.018746 0.002759 0.049865
v -0.018643 0.033251 0.045212
v -0.018711 0.023480 0.048295
v -0.003143 -0.020494 0.025563
v -0.018486 0.022264 0.037683
v -0.018133 0.033915 0.040556
v -0.019281 0.014013 0.037430
v -0.017712 0.035568 0.037612
v -0.018152 -0.000054 0.037808
v -0.017551 0.024601 0.049756
v -0.017497 0.045246 0.039879
v -0.017064 -0.010153 0.043900
v -0.016595 0.001327 0.046721
v -0.015957 0.044634 0.047153
v -0.017334 -0.007595 0.038022
v -0.016422 0.032656 0.049239
v -0.015641 0.033573 0.042812
v -0.016223 0.013065 0.037825
v -0.016595 0.011563 0.042970
v -0.016181 0.022882 0.038834
v -0.017169 0.043975 0.037741
v -0.015689 0.011241 0.049213
v -0.033165 0.025840 0.050338
v -0.014274 0.022320 0.048946
v -0.015306 0.000915 0.038880
v -0.015119 -0.008770 0.039339
v -0.015943 0.053813 0.044810
v -0.014680 -0.006793 0.038074
v -0.014501 0.000305 0.043888
v -0.014963 0.034875 0.038234
v -0.014446 0.054655 0.000115
v -0.014418 0.013068 0.039139
v -0.014410 0.021511 0.037962
v -0.014244 0.012636 0.046042
v -0.014457 -0.009889 0.049679
v -0.015032 0.022233 0.043997
v -0.013615 -0.008056 0.043996
v -0.013737 -0.001203 0.037916
v -0.013657 0.043149 0.038712
v -0.013458 -0.000309 0.048820
v -0.011827 0.043397 0.049558
v -0.013230 0.012644 0.048843
v -0.012967 -0.001817 0.041506
v -0.013188 0.015186 0.038286
v -0.013274 0.019722 0.037814
v -0.013034 0.042812 0.047111
v -0.013568 0.041000 0.037536
v -0.012766 0.036400 0.040346
v -0.012865 -0.006310 0.039755
v -0.012707 -0.003649 0.037984
v -0.012608 0.034509 0.049416
v -0.012255 0.000926 0.049805
v -0.012629 0.038214 0.037916
v -0.012390 0.019292 0.046193
v -0.012133 -0.004484 0.040842
v -0.012218 0.014984 0.046987
v -0.011973 0.017488 0.038931
v -0.012061 -0.007020 0.049242
v -0.012429 0.020455 0.048824
v -0.011912 0.039962 0.039296
v -0.011111 -0.003667 0.049677
v -0.011239 0.037230 0.049367
v -0.010607 0.016018 0.049425
v -0.009367 0.021310 0.049687
v -0.008838 -0.021453 0.050076
v -0.000367 -0.014809 0.049775
v -0.000461 0.053717 0.049669
v -0.016558 0.054327 0.027195
v -0.043356 0.033153 0.009091
v 0.003439 -0.021629 0.049341
v 0.003257 0.054161 0.000849
v 0.005539 -0.020839 0.049403
v 0.005968 -0.019803 0.000533
v 0.005727 -0.015804 -0.000016
v 0.006418 -0.010378 0.049176
v 0.006205 0.000041 0.000129
v 0.006155 -0.010569 0.012239
v 0.006542 -0.020533 0.047428
v 0.006514 0.011266 0.049247
v 0.006406 0.053314 0.049316
v 0.007006 0.006214 0.029190
v 0.007047 0.053492 0.001327
v 0.007069 0.053767 0.008114
v 0.007422 0.034082 0.030199
v 0.007734 0.051783 0.048662
v -0.006192 0.032039 0.049666
v -0.027210 -0.011006 0.034241
v -0.001037 0.010968 0.044243
v -0.020073 -0.012470 0.017307
v -0.018014 -0.010856 -0.000123
v -0.018011 0.027256 0.045912
v -0.042677 -0.020712 0.023883
v 0.000418 -0.015482 0.036346
v 0.004565 -0.021125 0.040882
v -0.011793 0.039224 0.044880
v -0.012298 0.011701 0.049710
v -0.027516 0.005202 0.050158
v -0.012235 0.031902 0.041346
v -0.017722 -0.019742 0.000006
v 0.002952 0.048753 0.043606
v -0.039477 -0.016257 0.020022
v 0.006310 -0.019577 0.039598
v 0.000407 0.044506 0.049419
v -0.019385 0.048597 0.034783
v -0.041293 -0.007930 0.049972
v -0.044250 -0.019759 0.022661
v 0.007714 0.053555 0.038946
v -0.031149 -0.016375 -0.000278
v 0.006199 -0.020229 0.025591
v -0.044218 -0.014330 0.045432
v -0.004465 -0.020075 0.000250
v -0.028150 -0.007577 0.041948
v -0.029720 0.012644 0.039936
v -0.028467 0.021995 0.043587
v -0.031850 0.042675 0.026917
v -0.029233 0.035003 0.042520
v -0.029158 0.043872 0.041797
v -0.024299 -0.001129 0.034200
v -0.024410 0.004535 0.040646
v -0.024288 0.019778 0.033611
v -0.024632 0.028566 0.038240
v -0.025679 0.041111 0.034905
v -0.018333 -0.008065 0.034922
v -0.015148 -0.001109 0.033262
v -0.018787 0.005357 0.033781
v -0.017807 0.025687 0.034931
v -0.019321 0.033979 0.033132
v -0.011677 -0.007905 0.034565
v -0.012675 0.005973 0.038934
v -0.011206 0.013859 0.034605
v -0.009044 0.022432 0.032974
v -0.012535 0.037067 0.030692
v -0.007905 -0.003021 0.041938
v -0.004563 0.021290 0.020609
v -0.006542 0.020012 0.041522
v -0.007402 0.044550 0.027342
v -0.007454 0.040964 0.038036
v -0.017613 0.038479 0.037738
v 0.007438 0.046484 0.049312
v -0.025175 0.017780 0.000308
v 0.007048 0.049701 0.000623
v -0.021425 0.000715 0.038455
v 0.006309 -0.017012 0.030579
v -0.043750 0.043332 0.032383
v -0.043870 0.055516 0.012223
v -0.015682 0.045627 0.049675
v 0.005690 -0.020622 0.032424
v -0.009674 0.053371 0.049831

# 704 tetrahedra
t 178 166 89 213
t 220 169 171 47
t 205 174 210 203
t 39 1 8 197
t 106 223 189 132
t 87 176 71 72
t 190 50 23 197
t 79 204 85 98
t 87 72 73 91
t 101 183 176 102
t 203 174 186 2
t 160 164 166 178
t 205 0 154 18
t 64 205 92 210
t 203 46 197 172
t 174 203 18 2
t 73 206 201 68
t 40 197 8 203
t 217 212 115 223
t 18 205 203 174
t 38 198 182 8
t 1 8 38 182
t 80 216 205 211
t 205 0 10 154
t 103 130 129 215
t 175 174 225 18
t 225 174 205 18
t 189 153 124 221
t 200 219 225 116
t 33 24 197 172
t 233 153 221 124
t 89 77 174 25
t 219 200 217 116
t 214 173 166 215
t 195 24 197 33
t 205 219 225 200
t 175 161 162 159
t 203 172 0 186
t 18 205 0 203
t 2 203 18 0
t 174 225 161 175
t 219 161 174 225
t 0 198 10 1
t 10 198 0 205
t 203 205 0 198
t 198 0 203 1
t 81 183 121 105
t 31 200 28 26
t 166 47 169 220
t 166 169 219 216
t 169 183 219 216
t 1 199 10 108
t 1 10 199 198
t 150 213 89 77
t 203 8 40 59
t 42 25 184 175
t 189 200 153 217
t 26 28 230 200
t 173 166 220 164
t 168 192 153 221
t 233 152 221 153
t 174 2 18 27
t 232 228 89 178
t 116 31 200 28
t 89 174 162 175
t 116 168 153 221
t 219 116 217 221
t 152 221 222 233
t 124 222 233 131
t 233 126 222 188
t 221 233 124 222
t 18 175 174 27
t 161 225 219 226
t 169 185 224 192
t 220 169 183 171
t 148 173 164 181
t 138 223 132 217
t 139 220 130 118
t 221 189 132 124
t 137 218 164 151
t 189 223 212 217
t 3 25 27 2
t 120 143 151 122
t 153 200 116 217
t 200 28 153 116
t 169 183 171 222
t 169 216 220 183
t 149 183 171 220
t 166 169 216 220
t 149 47 164 220
t 47 164 220 166
t 8 197 1 203
t 8 198 203 1
t 10 108 201 34
t 89 213 174 77
t 162 174 161 175
t 166 174 161 162
t 218 164 166 173
t 173 220 215 142
t 124 189 132 106
t 166 89 213 174
t 101 149 95 176
t 87 102 101 176
t 129 142 215 130
t 221 222 169 185
t 221 169 168 192
t 102 91 176 87
t 74 49 61 201
t 205 174 219 210
t 103 215 129 117
t 44 56 201 207
t 136 183 101 102
t 65 172 77 197
t 25 77 174 172
t 25 33 172 24
t 203 186 0 2
t 25 77 172 33
t 171 133 147 222
t 180 222 126 147
t 222 188 126 147
t 25 174 186 172
t 148 149 139 144
t 203 65 46 172
t 35 42 193 30
t 25 27 2 174
t 149 220 171 47
t 169 222 188 185
t 221 222 185 152
t 103 215 214 210
t 153 116 221 217
t 166 89 174 162
t 0 197 1 195
t 175 184 89 25
t 196 184 89 175
t 188 152 222 233
t 178 163 151 155
t 150 178 179 89
t 155 150 151 178
t 213 218 122 151
t 15 29 6 154
t 163 178 151 160
t 24 195 0 4
t 0 197 203 1
t 214 123 209 218
t 174 225 205 219
t 213 150 122 77
t 110 214 114 128
t 189 153 200 28
t 0 197 24 172
t 213 166 209 218
t 210 209 174 166
t 151 178 150 213
t 25 2 186 174
t 89 158 162 194
t 37 50 1 197
t 3 30 7 27
t 39 182 8 1
t 56 206 201 207
t 39 204 8 182
t 86 204 39 182
t 137 181 214 98
t 181 137 218 164
t 199 201 108 71
t 119 98 181 107
t 119 173 181 214
t 197 0 24 195
t 13 33 195 23
t 180 131 126 222
t 1 190 195 197
t 172 24 0 186
t 203 174 172 186
t 89 196 175 162
t 176 101 149 183
t 75 91 68 206
t 95 109 88 121
t 24 172 25 186
t 204 210 203 64
t 211 212 205 206
t 64 204 198 203
t 203 198 8 204
t 115 91 183 102
t 138 115 223 217
t 38 62 182 198
t 39 40 8 59
t 48 64 66 198
t 1 190 197 50
t 33 23 197 195
t 139 148 220 149
t 21 29 31 26
t 6 230 29 26
t 35 175 42 184
t 159 175 196 162
t 159 162 196 158
t 221 185 169 192
t 145 180 222 124
t 192 165 185 170
t 185 165 224 170
t 124 106 96 189
t 26 29 31 200
t 112 153 233 124
t 112 189 96 32
t 112 124 96 189
t 166 218 178 164
t 181 98 119 214
t 197 53 84 65
t 197 77 65 84
t 87 95 176 101
t 87 95 71 176
t 95 74 101 87
t 95 71 74 87
t 33 50 197 23
t 190 197 23 195
t 222 188 185 152
t 154 230 29 6
t 42 25 193 30
t 171 136 183 149
t 3 25 30 27
t 29 200 230 154
t 114 98 214 85
t 114 137 214 98
t 188 171 147 222
t 47 171 188 169
t 176 121 88 81
t 176 88 72 81
t 104 103 214 85
t 85 83 103 64
t 208 65 172 77
t 197 33 172 77
t 137 218 214 181
t 46 65 197 172
t 203 172 197 0
t 208 65 203 172
t 25 3 177 186
t 186 177 191 3
t 3 2 186 25
t 19 18 225 154
t 173 220 141 148
t 205 18 154 225
t 175 25 89 174
t 83 103 104 85
t 64 85 210 103
t 66 79 62 182
t 204 198 8 182
t 107 86 79 98
t 197 53 50 84
t 197 77 84 33
t 89 158 196 162
t 181 214 173 218
t 15 29 154 22
t 3 186 2 191
t 0 2 186 191
t 166 178 163 160
t 228 187 166 178
t 228 232 187 178
t 139 141 220 148
t 166 194 228 89
t 77 122 97 84
t 74 201 61 73
t 204 64 85 210
t 64 85 83 204
t 204 66 83 64
t 66 204 83 79
t 22 29 21 15
t 180 131 222 124
t 99 124 112 233
t 78 204 39 86
t 139 220 121 149
t 121 220 183 149
t 121 118 183 220
t 139 121 220 118
t 102 183 133 136
t 115 183 133 102
t 204 182 66 198
t 64 198 204 66
t 28 32 207 189
t 153 28 189 32
t 101 136 149 183
t 32 189 82 70
t 32 207 189 70
t 112 153 189 32
t 121 176 149 183
t 193 30 25 27
t 144 121 109 149
t 15 154 19 22
t 22 29 154 19
t 190 1 195 9
t 104 98 79 85
t 163 178 179 155
t 163 151 155 157
t 119 98 104 214
t 119 107 79 98
t 85 204 227 78
t 33 150 77 84
t 119 98 79 104
t 7 3 27 2
t 182 204 79 86
t 182 66 79 204
t 233 131 222 126
t 197 50 33 84
t 176 149 95 121
t 109 95 149 121
t 149 139 144 121
t 147 133 171 136
t 166 162 194 89
t 118 183 105 121
t 176 81 91 183
t 13 24 4 195
t 13 24 195 33
t 104 98 85 214
t 99 96 112 124
t 25 177 24 186
t 186 24 0 4
t 221 132 189 217
t 186 24 4 177
t 29 21 15 6
t 98 181 107 86
t 145 132 124 222
t 176 95 88 121
t 151 157 163 160
t 152 185 192 165
t 152 224 185 165
t 221 185 192 152
t 145 180 133 222
t 102 91 183 176
t 225 29 154 200
t 187 163 178 179
t 178 151 218 213
t 180 147 133 222
t 171 222 183 133
t 177 186 191 4
t 171 183 136 133
t 0 191 186 4
t 174 208 213 209
t 169 188 224 185
t 129 173 119 117
t 223 56 207 212
t 195 190 9 23
t 201 49 71 74
t 223 93 212 115
t 132 223 189 217
t 78 204 86 98
t 131 99 126 233
t 61 44 201 41
t 142 220 141 173
t 201 74 71 73
t 189 82 96 32
t 189 106 96 82
t 138 133 222 145
t 166 228 178 89
t 221 132 222 124
t 200 212 217 189
t 86 137 98 181
t 139 220 141 142
t 138 133 115 183
t 175 25 174 27
t 193 25 175 27
t 75 206 212 91
t 92 103 210 215
t 217 183 219 169
t 211 183 105 118
t 78 85 204 98
t 183 217 222 169
t 63 55 206 69
t 217 219 221 169
t 187 163 166 178
t 221 192 153 152
t 221 217 222 132
t 169 168 116 221
t 122 218 134 140
t 87 72 71 73
t 226 168 156 116
t 226 167 156 168
t 54 64 205 92
t 189 221 217 153
t 222 169 188 171
t 207 212 200 189
t 48 43 198 66
t 217 222 169 221
t 169 116 219 221
t 166 214 209 218
t 114 146 137 125
t 178 164 151 160
t 210 214 209 166
t 150 151 122 120
t 232 187 178 179
t 135 213 218 134
t 220 166 173 215
t 218 173 181 164
t 166 216 219 215
t 151 122 143 218
t 218 135 123 209
t 148 173 220 164
t 148 164 220 149
t 119 181 141 127
t 218 214 173 166
t 166 216 215 220
t 155 178 179 150
t 218 143 151 146
t 100 113 111 208
t 113 213 111 208
t 151 218 164 178
t 135 134 113 213
t 85 210 214 110
t 134 122 213 218
t 128 218 143 140
t 110 123 214 128
t 113 209 213 208
t 139 142 130 220
t 140 218 143 122
t 135 209 218 213
t 65 52 46 197
t 135 140 134 218
t 114 218 214 137
t 85 114 110 214
t 129 142 173 215
t 130 103 80 215
t 130 220 215 216
t 209 123 94 113
t 220 118 183 216
t 130 216 118 220
t 130 220 142 215
t 129 215 173 117
t 173 214 117 215
t 103 214 215 117
t 141 142 173 129
t 141 173 119 129
t 13 195 9 23
t 77 111 213 208
t 203 67 46 65
t 198 64 54 48
t 227 94 210 85
t 174 77 208 172
t 203 67 65 208
t 40 46 197 203
t 65 208 67 100
t 86 98 137 125
t 209 94 67 113
t 174 208 203 172
t 205 210 64 203
t 83 85 104 79
t 94 110 210 85
t 85 214 210 103
t 65 97 77 111
t 174 208 77 213
t 40 53 197 52
t 209 213 135 113
t 209 214 110 123
t 209 214 210 110
t 203 59 67 227
t 209 123 113 135
t 71 201 108 49
t 67 100 208 113
t 40 46 52 197
t 209 94 203 67
t 209 94 210 203
t 94 227 203 67
t 37 40 53 197
t 84 77 65 97
t 37 50 197 53
t 215 219 210 205
t 40 39 197 37
t 66 198 182 62
t 59 39 204 8
t 197 53 65 52
t 203 46 67 59
t 203 227 210 204
t 205 92 210 215
t 204 59 8 203
t 37 39 197 1
t 203 59 40 46
t 203 210 227 94
t 204 210 85 227
t 92 210 103 64
t 210 166 219 215
t 215 214 210 166
t 5 18 2 27
t 210 174 209 203
t 209 166 213 174
t 219 217 200 212
t 199 201 200 10
t 54 36 205 198
t 212 206 200 205
t 183 121 176 81
t 202 201 207 44
t 225 200 116 29
t 205 200 212 219
t 21 26 20 16
t 21 20 26 31
t 11 20 16 21
t 6 16 21 11
t 154 229 200 230
t 10 199 205 200
t 17 32 202 28
t 60 41 34 202
t 56 207 212 206
t 12 229 28 17
t 199 206 205 200
t 71 95 88 176
t 80 55 69 205
t 80 69 211 205
t 105 211 118 90
t 206 200 207 212
t 72 91 176 81
t 108 49 201 34
t 10 17 202 229
t 202 201 200 207
t 10 202 201 200
t 28 202 207 32
t 154 200 229 10
t 10 205 154 200
t 71 176 88 72
t 34 57 202 10
t 10 202 17 57
t 34 49 201 41
t 207 189 200 28
t 34 202 201 10
t 202 41 201 44
t 64 205 203 198
t 72 71 73 199
t 206 201 199 73
t 36 43 199 198
t 80 54 55 205
t 48 198 36 54
t 36 198 199 205
t 54 205 64 198
t 199 201 10 108
t 72 199 51 71
t 211 219 205 212
t 48 198 43 36
t 80 69 90 211
t 206 207 200 201
t 206 201 200 199
t 73 71 201 199
t 60 44 41 202
t 44 56 73 201
t 216 219 205 211
t 56 201 206 68
t 69 206 205 55
t 55 36 205 54
t 55 199 205 36
t 55 199 206 205
t 51 199 36 43
t 63 199 55 36
t 63 206 55 199
t 81 90 211 105
t 211 183 216 219
t 91 115 183 212
t 211 205 69 206
t 80 205 92 54
t 69 90 211 81
t 211 206 69 81
t 211 91 206 81
t 211 212 183 219
t 183 212 217 219
t 183 212 115 217
t 80 92 205 215
t 216 219 215 205
t 80 216 215 205
t 72 63 51 199
t 87 74 73 71
t 63 206 72 81
t 63 69 206 81
t 91 72 73 206
t 206 81 91 72
t 72 206 199 73
t 87 176 72 91
t 61 201 49 41
t 56 201 68 73
t 75 93 91 212
t 41 202 201 34
t 207 28 200 202
t 57 34 202 60
t 73 201 61 44
t 223 189 207 70
t 223 189 212 207
t 223 82 189 70
t 93 212 75 223
t 75 206 68 56
t 91 93 115 212
t 223 106 189 82
t 32 207 70 202
t 17 229 28 202
t 57 96 32 112
t 76 57 231 112
t 42 25 175 193
t 1 198 38 8
t 169 219 161 166
t 174 219 210 166
t 192 185 224 170
t 29 225 154 19
t 208 209 203 67
t 208 203 209 174
t 6 21 16 26
t 26 6 21 29
t 230 200 29 26
t 152 188 185 224
t 7 14 27 30
t 7 5 2 27
t 85 204 79 83
t 137 98 114 125
t 122 111 213 77
t 227 204 39 78
t 79 204 98 86
t 229 202 10 200
t 183 222 217 138
t 222 183 133 138
t 45 108 71 199
t 119 214 104 117
t 17 32 57 202
t 141 181 173 148
t 141 127 181 148
t 119 181 127 107
t 173 141 119 181
t 32 60 70 82
t 32 60 202 70
t 32 96 60 82
t 32 96 57 60
t 227 59 204 203
t 35 42 175 193
t 173 214 119 117
t 227 204 59 39
t 134 213 111 113
t 134 122 111 213
t 130 80 118 216
t 6 21 15 11
t 178 232 179 89
t 97 122 77 111
t 150 122 84 120
t 150 84 122 77
t 150 122 151 213
t 44 70 207 202
t 138 183 115 217
t 138 217 132 222
t 138 132 145 222
t 118 183 216 211
t 118 211 216 80
t 118 90 211 80
t 128 218 135 123
t 116 169 219 226
t 205 154 200 225
t 89 228 232 194
t 200 28 230 229
t 161 219 174 166
t 72 63 199 206
t 51 199 63 36
t 94 110 209 210
t 94 110 123 209
t 208 67 113 209
t 58 207 70 223
t 58 56 207 223
t 58 207 56 44
t 39 8 40 197
t 14 27 5 7
t 218 137 146 151
t 146 137 218 114
t 231 112 99 76
t 112 76 96 99
t 169 47 224 188
t 112 76 57 96
t 231 112 57 233
t 99 233 131 124
t 231 99 233 126
t 231 112 233 99
t 198 43 62 66
t 38 43 199 51
t 38 62 198 43
t 38 43 198 199
t 51 199 45 71
t 215 80 130 216
t 103 80 215 92
t 229 202 200 28
t 229 28 230 12
t 112 153 124 189
t 58 44 70 207
t 198 199 205 10
t 89 150 178 213
t 38 199 1 108
t 38 1 199 198
t 38 199 108 45
t 38 199 45 51
t 178 166 213 218
t 73 91 206 68
t 29 116 31 200
t 226 161 169 219
t 116 168 169 226
t 219 225 116 226
t 57 32 60 202
t 57 76 60 96
t 117 103 214 104
t 100 111 65 208
t 208 111 65 77
t 60 70 44 202
t 26 6 230 16
t 75 212 56 223
t 75 212 206 56
t 91 212 211 206
t 105 183 211 81
t 183 212 211 91
t 81 211 91 183
t 135 218 128 140
t 128 143 218 146
t 128 114 218 214
t 128 218 123 214
t 128 146 218 114
