# Tetrahedral mesh generated using fTetWild (wildmeshing) from 026_sponge/google_16k/nontextured.ply

# 235 vertices
v -0.054753 0.063172 0.003621
v -0.054312 0.067269 0.003076
v -0.054312 0.065500 0.001685
v -0.053960 -0.038811 0.008950
v -0.053224 -0.039164 0.011000
v -0.052855 0.059401 0.003421
v -0.052796 -0.034485 0.006065
v -0.052756 -0.028754 0.009466
v -0.052377 0.057166 0.006565
v -0.052570 0.062531 0.001878
v -0.052365 -0.035085 0.012951
v -0.052121 0.015790 0.010104
v -0.052299 -0.019136 0.005476
v -0.052076 -0.002335 0.012852
v -0.051832 -0.037041 0.005092
v -0.051762 0.066423 0.006194
v -0.051694 -0.004361 0.003689
v -0.051822 0.022734 0.013483
v -0.051619 -0.022775 0.014457
v -0.051910 -0.013694 0.014008
v -0.051715 0.040166 0.011952
v -0.051517 -0.029406 0.002844
v -0.051899 0.007561 0.013628
v -0.050537 -0.039478 0.006218
v -0.051884 0.050551 0.004998
v -0.051278 0.038738 0.004329
v -0.052035 0.003701 0.004474
v -0.051175 0.014621 0.015214
v -0.050419 0.058583 0.002554
v -0.050866 0.069024 0.004751
v -0.050544 -0.032984 0.002257
v -0.051354 0.051336 0.010529
v -0.050478 0.021301 0.002980
v -0.050502 0.061887 0.008142
v -0.050588 0.034303 0.015643
v -0.050919 0.016375 0.003142
v -0.050574 -0.017442 0.001506
v -0.049896 0.055638 0.013675
v -0.049863 0.001701 0.016347
v -0.049946 -0.034469 0.015574
v -0.048955 0.066167 0.002357
v -0.049564 0.062713 0.003380
v -0.049505 -0.015943 0.015685
v -0.048088 0.000047 0.001702
v -0.048595 -0.037371 0.003114
v -0.048549 0.020043 0.017172
v -0.049749 0.027443 0.016756
v -0.048894 0.007538 0.016823
v -0.049352 0.052222 0.015262
v -0.048632 0.053054 0.000804
v -0.048640 -0.024886 0.015949
v -0.048489 -0.040736 0.010798
v -0.048175 0.059663 0.012665
v -0.046595 0.047450 0.001067
v -0.047388 -0.038999 0.013522
v -0.047220 0.065192 0.007787
v -0.047027 -0.032539 0.001242
v -0.044228 0.013680 0.001749
v -0.043456 0.035109 0.001158
v -0.046181 0.058386 0.001092
v -0.045277 0.055858 0.015234
v -0.045951 0.038284 0.017164
v -0.044846 0.069662 0.006970
v -0.043927 -0.036114 0.015881
v -0.043326 -0.030707 0.016633
v -0.037069 0.020116 0.001229
v -0.038537 0.004601 0.001153
v -0.037385 0.068711 0.007567
v -0.039880 0.067075 0.004717
v -0.037833 0.009500 0.017612
v -0.039281 0.055894 0.015735
v -0.036957 0.060385 0.001949
v -0.035641 0.066956 0.009381
v -0.035858 -0.040248 0.005136
v -0.032483 -0.037694 0.002665
v -0.035552 -0.040598 0.010271
v -0.029675 0.068664 0.009077
v -0.033325 0.060550 0.014012
v -0.031764 0.051592 0.016724
v -0.032703 -0.039337 0.013495
v -0.030777 0.063807 0.006508
v -0.029671 -0.035476 0.016614
v -0.028183 0.060540 0.003041
v -0.033643 0.034433 0.001384
v -0.028265 0.054366 0.000762
v -0.027017 0.064487 0.010847
v -0.028403 -0.040732 0.009174
v -0.025494 0.066689 0.006733
v -0.023344 0.059442 0.014685
v -0.025290 -0.034105 0.001490
v -0.025749 -0.038250 0.015489
v -0.024628 -0.040813 0.005256
v -0.022930 -0.037983 0.002820
v -0.021975 -0.040287 0.011686
v -0.021472 0.063889 0.007607
v -0.020085 0.060375 0.003285
v -0.017680 0.066529 0.006907
v -0.017028 0.069120 0.008723
v -0.016910 -0.039057 0.002956
v -0.014483 0.063560 0.007873
v -0.014598 -0.040403 0.012859
v -0.015467 0.043031 0.001489
v -0.015365 0.063401 0.011369
v -0.012698 -0.033635 0.001343
v -0.012425 0.056399 0.001920
v -0.012157 -0.040973 0.004957
v -0.011869 0.050953 0.017375
v -0.011684 0.066217 0.011297
v -0.011282 0.068005 0.008356
v -0.008445 0.062714 0.011949
v -0.006215 -0.036222 0.016551
v -0.005699 0.068418 0.010611
v -0.006874 0.065496 0.007594
v -0.001748 -0.006527 0.000808
v -0.001769 0.022583 0.001643
v -0.005319 -0.037563 0.001679
v -0.006206 -0.039669 0.014097
v -0.005612 -0.041561 0.010521
v -0.004606 0.067996 0.008622
v -0.001937 0.014641 0.017809
v -0.002683 0.063178 0.008274
v -0.000157 0.063183 0.012373
v -0.000774 -0.040341 0.003002
v 0.001689 -0.012631 0.017416
v 0.002139 0.068289 0.010431
v 0.002953 0.067091 0.012102
v 0.004540 0.060992 0.006366
v 0.005384 0.058057 0.004199
v 0.006137 -0.030711 0.016917
v 0.008801 0.062773 0.009606
v 0.009264 0.062916 0.013564
v 0.006971 -0.040876 0.012482
v 0.010612 0.053250 0.002822
v 0.010810 0.067391 0.013379
v 0.008201 0.049837 0.018784
v 0.012694 0.065693 0.009958
v 0.012769 0.058595 0.005376
v 0.013274 -0.041987 0.008908
v 0.011731 -0.037726 0.015417
v 0.013742 -0.039192 0.002346
v 0.013953 0.029759 0.018307
v 0.011484 0.029260 0.002803
v 0.012479 -0.009061 0.001056
v 0.014664 -0.041499 0.004744
v 0.014953 -0.028223 0.000623
v 0.014260 -0.014501 0.016268
v 0.015007 0.060693 0.008360
v 0.014923 -0.040310 0.012336
v 0.016283 0.056199 0.004960
v 0.015931 0.022814 0.002544
v 0.015770 0.034871 0.002428
v 0.016035 0.046224 0.003087
v 0.016213 -0.002857 0.001528
v 0.016360 -0.033936 0.015137
v 0.016193 0.068581 0.012739
v 0.016525 0.021083 0.017923
v 0.016755 -0.037562 0.002779
v 0.017810 0.061651 0.015947
v 0.017050 0.003839 0.016950
v 0.016886 0.055663 0.018482
v 0.017576 -0.003317 0.015920
v 0.017413 0.061177 0.011421
v 0.017654 -0.020742 0.001432
v 0.015307 0.006527 0.001904
v 0.018960 -0.026864 0.003019
v 0.017644 -0.037770 0.013025
v 0.017860 -0.041899 0.010154
v 0.018848 0.058258 0.008953
v 0.018121 -0.006357 0.001612
v 0.018412 0.013466 0.003029
v 0.018713 -0.031532 0.013141
v 0.018947 0.029513 0.003281
v 0.019123 -0.008846 0.013942
v 0.019205 -0.041541 0.005747
v 0.019224 -0.022965 0.012467
v 0.019265 0.050325 0.004762
v 0.018423 0.043089 0.018283
v 0.019659 -0.040754 0.008149
v 0.020061 0.008932 0.014836
v 0.019686 0.028121 0.017255
v 0.019515 -0.037554 0.009318
v 0.019686 0.008038 0.004364
v 0.019603 -0.001327 0.013781
v 0.019808 -0.006124 0.003956
v 0.018344 0.050365 0.018843
v 0.019949 0.022188 0.016138
v 0.019347 0.001372 0.002956
v 0.020203 0.031532 0.004833
v 0.020372 0.005014 0.008574
v 0.020422 0.037475 0.005007
v 0.020685 0.018851 0.006408
v 0.021081 0.027744 0.008018
v 0.020680 0.066796 0.015980
v 0.020914 0.027889 0.014090
v 0.020967 0.035387 0.015480
v 0.021117 0.045571 0.015913
v 0.021285 0.042424 0.008152
v 0.021733 0.061630 0.014464
v 0.022376 0.065313 0.012874
v 0.022977 0.059686 0.016078
v 0.022227 0.067595 0.014122
v 0.023930 0.062951 0.014311
v 0.023731 0.065645 0.016332
v -0.039944 -0.032678 0.008752
v -0.044440 -0.012648 0.009060
v -0.043381 -0.000703 0.008900
v -0.045591 0.028590 0.008331
v -0.017277 -0.033976 0.008703
v -0.012075 0.056432 0.008830
v -0.001235 -0.030873 0.008605
v -0.001992 0.056203 0.009994
v 0.012284 -0.015478 0.009058
v 0.012785 0.012020 0.009385
v 0.013914 0.037404 0.009950
v 0.012586 0.052025 0.009950
v -0.034002 -0.018394 0.000736
v -0.031746 -0.022871 0.016940
v 0.005618 -0.041850 0.007930
v -0.020743 0.068101 0.010463
v -0.041445 0.063722 0.005100
v -0.002866 0.059432 0.003431
v -0.014406 -0.038034 0.015595
v -0.042931 0.064576 0.008760
v 0.007341 -0.040780 0.003504
v 0.001919 0.062602 0.008643
v -0.016521 0.032144 0.017968
v 0.019942 -0.006635 0.009510
v -0.015497 -0.041509 0.008736
v 0.000338 0.065412 0.008399
v -0.044165 -0.039259 0.004199
v -0.020836 0.068995 0.008875
v 0.004559 -0.033967 0.001140
v 0.002046 0.057737 0.016395
v -0.052632 -0.018645 0.010267
v -0.010467 0.059322 0.015031

# 606 tetrahedra
t 21 203 36 12
t 206 57 11 32
t 212 169 163 149
t 215 205 69 66
t 40 1 2 0
t 197 199 201 202
t 70 88 78 84
t 210 106 234 208
t 233 12 204 50
t 70 77 84 71
t 99 95 208 94
t 211 162 144 142
t 198 135 161 157
t 140 179 193 194
t 198 202 200 192
t 198 135 157 192
t 157 159 199 202
t 208 141 106 101
t 178 212 155 185
t 100 117 105 116
t 166 177 173 180
t 139 217 143 137
t 56 203 215 36
t 26 205 43 35
t 123 209 113 211
t 191 171 141 187
t 15 40 1 29
t 59 28 8 41
t 9 41 5 28
t 206 70 25 20
t 41 28 8 5
t 218 76 87 85
t 176 179 140 194
t 213 194 140 193
t 195 213 194 176
t 123 158 160 212
t 104 220 208 132
t 123 110 209 128
t 195 213 196 194
t 214 199 159 184
t 134 141 210 214
t 108 118 111 112
t 85 87 80 76
t 197 157 161 167
t 78 101 84 88
t 96 102 94 99
t 212 113 123 119
t 192 133 154 135
t 197 167 199 157
t 135 130 129 161
t 85 72 76 80
t 130 133 192 135
t 224 121 228 120
t 107 102 96 99
t 99 102 208 109
t 176 184 214 134
t 208 104 132 101
t 127 210 132 214
t 206 32 11 25
t 190 171 169 149
t 106 141 225 101
t 155 193 141 140
t 194 213 196 193
t 214 176 213 195
t 140 213 193 141
t 155 141 193 149
t 176 184 195 214
t 213 194 176 140
t 134 210 232 214
t 232 214 157 159
t 159 157 199 214
t 175 148 214 167
t 198 154 192 200
t 197 157 199 202
t 175 214 151 213
t 111 125 121 124
t 118 124 111 121
t 150 141 187 213
t 155 193 179 185
t 151 141 213 214
t 151 214 132 141
t 132 220 208 210
t 191 213 187 141
t 151 213 141 150
t 132 141 214 210
t 101 65 225 83
t 106 208 210 141
t 208 132 141 101
t 208 210 141 132
t 126 232 210 214
t 175 148 151 214
t 225 114 101 141
t 148 132 214 136
t 161 129 146 214
t 126 214 127 136
t 190 171 149 191
t 191 193 213 141
t 190 193 191 149
t 187 141 150 171
t 191 187 213 189
t 190 185 193 149
t 191 149 193 141
t 171 191 141 149
t 189 213 191 193
t 189 213 150 187
t 196 213 214 175
t 196 189 213 175
t 134 213 214 176
t 142 152 113 160
t 152 226 188 160
t 152 183 188 226
t 105 103 209 115
t 142 152 160 226
t 142 183 168 152
t 173 143 137 156
t 139 144 137 156
t 142 168 183 162
t 81 90 79 89
t 160 212 158 188
t 203 81 79 89
t 156 137 139 143
t 209 144 128 138
t 155 212 158 119
t 115 103 98 105
t 211 144 209 113
t 156 180 164 144
t 156 137 180 144
t 211 144 128 209
t 91 227 92 86
t 173 180 164 156
t 173 156 137 180
t 147 137 180 166
t 209 231 103 113
t 138 165 144 153
t 212 113 163 160
t 182 158 178 188
t 217 144 231 209
t 123 211 160 145
t 209 144 231 113
t 119 140 155 114
t 144 137 180 147
t 144 165 147 180
t 226 152 183 142
t 79 86 75 74
t 91 74 86 92
t 209 122 115 231
t 211 123 209 128
t 211 160 113 123
t 65 119 66 113
t 160 188 158 182
t 226 211 160 142
t 211 153 144 174
t 211 142 113 160
t 211 172 160 145
t 221 207 93 90
t 188 152 163 186
t 211 153 128 144
t 211 153 145 128
t 211 144 113 142
t 212 169 149 190
t 149 212 114 163
t 160 212 188 163
t 152 186 188 183
t 188 181 163 212
t 160 163 152 113
t 149 185 155 212
t 149 185 193 155
t 212 185 190 149
t 155 179 193 140
t 123 145 128 211
t 113 212 123 160
t 165 180 166 147
t 131 147 137 144
t 209 110 103 105
t 116 110 138 209
t 116 110 105 221
t 166 137 180 173
t 144 170 153 165
t 144 180 170 165
t 110 123 103 207
t 138 153 144 128
t 131 144 137 217
t 122 217 231 209
t 131 209 144 217
t 117 105 209 217
t 147 165 144 138
t 131 147 144 138
t 144 137 217 139
t 231 144 217 139
t 115 231 103 209
t 138 144 131 209
t 116 105 209 117
t 100 105 207 221
t 116 110 209 105
t 100 116 105 221
t 221 105 207 110
t 105 103 207 110
t 78 206 61 70
t 203 89 215 81
t 73 75 86 74
t 92 207 93 227
t 205 66 36 43
t 89 81 90 207
t 123 69 215 216
t 216 64 203 81
t 221 207 90 81
t 90 207 93 89
t 221 93 207 100
t 7 18 50 233
t 50 64 203 216
t 47 38 22 205
t 39 203 50 64
t 13 204 38 42
t 204 216 38 42
t 18 50 39 7
t 34 206 61 46
t 10 39 7 18
t 10 4 54 39
t 84 83 70 59
t 218 102 94 96
t 17 27 11 45
t 6 229 14 44
t 45 11 47 27
t 203 50 7 39
t 93 79 90 89
t 203 63 79 81
t 203 79 75 74
t 3 10 6 7
t 203 89 79 74
t 73 75 203 229
t 203 74 44 56
t 73 74 203 75
t 203 64 39 63
t 98 103 207 105
t 91 86 74 73
t 98 105 207 227
t 12 203 204 50
t 89 56 203 215
t 204 50 216 42
t 36 215 205 204
t 203 204 50 216
t 36 215 66 205
t 43 205 16 36
t 38 69 205 47
t 204 50 42 233
t 7 21 203 6
t 123 69 119 66
t 24 8 49 5
t 215 69 205 216
t 103 123 215 207
t 89 74 92 86
t 123 119 113 66
t 13 205 204 16
t 66 69 65 57
t 47 11 22 27
t 45 225 69 65
t 207 89 81 215
t 44 14 23 229
t 89 86 92 93
t 89 86 79 74
t 35 43 57 205
t 12 233 204 13
t 12 36 204 203
t 16 205 204 36
t 16 205 43 26
t 13 16 26 205
t 35 205 57 11
t 13 38 205 22
t 205 47 11 22
t 6 14 30 44
t 6 30 56 44
t 6 44 56 203
t 6 56 21 203
t 6 203 7 10
t 7 12 203 21
t 7 233 50 12
t 21 56 36 203
t 66 205 69 57
t 65 206 83 58
t 58 53 32 206
t 20 61 206 70
t 48 70 61 20
t 206 32 25 53
t 49 25 20 24
t 9 2 0 40
t 8 31 59 37
t 49 8 59 28
t 37 8 33 59
t 68 72 76 67
t 206 225 65 83
t 70 53 25 49
t 53 58 83 206
t 40 62 15 55
t 53 70 83 59
t 218 87 76 230
t 40 55 68 62
t 230 94 87 96
t 96 108 97 107
t 68 87 76 80
t 111 108 107 97
t 218 97 107 96
t 72 76 80 68
t 62 68 72 222
t 68 55 40 219
t 17 206 34 46
t 101 78 83 225
t 34 17 20 206
t 20 11 25 206
t 34 61 206 20
t 20 206 17 11
t 34 61 20 48
t 46 61 45 206
t 25 70 206 53
t 95 220 208 104
t 208 99 94 102
t 49 70 31 20
t 70 49 25 20
t 20 49 24 31
t 60 70 31 59
t 60 70 59 52
t 60 70 48 31
t 60 31 48 37
t 59 70 84 71
t 94 208 102 88
t 218 96 94 230
t 69 57 11 45
t 26 205 22 13
t 22 205 26 11
t 205 57 11 69
t 35 26 205 11
t 11 35 32 57
t 45 206 65 57
t 225 61 206 45
t 234 106 210 232
t 218 102 96 107
t 77 88 70 84
t 88 95 208 84
t 99 112 96 107
t 84 88 82 77
t 88 95 84 82
t 78 106 101 88
t 78 106 225 101
t 208 106 234 88
t 218 94 87 230
t 218 97 96 230
t 65 58 32 206
t 189 196 213 193
t 94 80 85 87
t 101 88 208 84
t 135 124 130 133
t 215 216 204 203
t 89 207 103 215
t 215 69 123 66
t 215 216 205 204
t 215 81 216 203
t 169 190 212 181
t 119 225 65 69
t 133 124 130 125
t 10 14 229 23
t 10 229 14 6
t 10 14 3 6
t 17 45 206 46
t 99 107 109 112
t 121 118 112 111
t 112 108 107 111
t 109 112 107 111
t 220 208 99 95
t 161 198 157 197
t 161 157 135 130
t 155 114 212 119
t 114 140 155 141
t 114 141 155 149
t 228 130 121 224
t 219 222 72 68
t 192 154 198 135
t 110 103 123 209
t 174 144 180 170
t 17 206 45 11
t 218 94 85 87
t 102 88 85 94
t 162 211 164 183
t 162 142 211 183
t 215 204 36 203
t 233 42 204 19
t 20 48 70 31
t 101 225 65 114
t 56 30 6 21
t 94 208 88 95
t 102 88 208 234
t 220 210 132 127
t 120 220 127 210
t 120 127 126 210
t 99 120 109 208
t 213 151 189 150
t 213 151 175 189
t 110 209 128 138
t 146 161 214 167
t 214 232 129 126
t 52 59 33 219
t 41 9 5 0
t 157 202 197 198
t 202 198 157 192
t 201 202 198 197
t 52 219 33 55
t 83 78 101 84
t 83 206 70 53
t 174 172 211 153
t 99 120 208 220
t 99 107 102 109
t 68 67 62 72
t 36 12 204 16
t 99 112 109 120
t 228 135 124 130
t 102 234 208 109
t 222 68 55 62
t 219 71 52 59
t 72 80 219 68
t 219 77 222 52
t 80 71 82 77
t 219 71 77 52
t 52 77 70 71
t 219 80 77 71
t 77 71 82 84
t 120 220 210 208
t 234 109 121 210
t 33 41 59 8
t 33 41 55 219
t 33 59 41 219
t 217 139 143 223
t 222 219 55 68
t 227 117 105 100
t 91 227 98 92
t 227 92 86 93
t 8 28 49 5
t 114 212 119 113
t 207 123 81 110
t 73 229 203 74
t 229 203 44 6
t 63 39 203 54
t 229 203 74 44
t 229 10 203 6
t 102 218 94 85
t 164 174 211 144
t 188 160 163 152
t 119 212 158 123
t 129 136 146 214
t 224 232 121 210
t 224 126 232 210
t 224 210 121 120
t 224 232 126 129
t 224 121 232 130
t 224 210 120 126
t 225 78 206 61
t 211 160 172 226
t 183 174 226 211
t 183 164 174 211
t 94 80 82 88
t 181 169 163 212
t 181 188 190 212
t 224 129 228 130
t 121 130 228 124
t 93 86 79 89
t 38 205 216 204
t 65 119 69 66
t 47 11 45 69
t 47 205 11 69
t 10 203 7 39
t 10 51 54 4
t 10 51 203 54
t 10 54 203 39
t 10 51 23 229
t 38 205 204 13
t 216 69 205 38
t 113 103 209 123
t 132 214 136 127
t 132 214 151 148
t 127 214 126 210
t 19 13 42 204
t 134 214 232 159
t 195 196 214 199
t 214 167 199 175
t 214 199 196 175
t 146 167 214 148
t 203 7 50 12
t 228 124 118 121
t 112 109 121 111
t 120 112 109 121
t 228 112 121 118
t 228 112 120 121
t 84 208 101 104
t 84 95 208 104
t 82 80 77 88
t 82 94 88 95
t 80 85 77 88
t 158 178 188 212
t 185 190 188 212
t 129 130 224 232
t 129 126 136 214
t 130 125 124 121
t 211 172 174 226
t 226 172 182 160
t 226 211 142 183
t 123 215 81 216
t 134 232 210 106
t 206 70 78 83
t 83 70 78 84
t 56 74 89 203
t 41 55 40 15
t 55 41 40 219
t 41 8 33 15
t 15 0 41 8
t 15 40 0 1
t 8 41 5 0
t 41 9 0 40
t 15 0 40 41
t 15 55 33 41
t 54 75 203 79
t 63 54 203 79
t 63 203 64 81
t 186 163 188 181
t 65 69 45 57
t 65 206 32 57
t 206 57 45 11
t 49 8 24 31
t 31 49 59 70
t 49 53 59 70
t 8 31 49 59
t 72 77 80 85
t 72 77 219 80
t 72 219 77 222
t 231 217 223 139
t 211 164 144 162
t 52 37 59 60
t 52 33 59 37
t 52 219 55 222
t 106 210 134 141
t 234 210 121 232
t 106 88 208 101
t 225 206 78 83
t 231 122 223 217
t 226 188 160 182
t 80 88 94 85
t 184 214 134 159
t 195 213 214 196
t 167 157 214 199
t 167 214 157 161
t 148 136 214 146
t 211 172 145 153
t 210 234 109 208
t 121 210 109 120
t 109 210 208 120
t 3 14 10 23
t 134 141 225 106
t 199 214 195 184
t 89 207 93 92
t 98 207 89 92
t 89 207 98 103
t 62 40 15 29
t 161 214 130 129
t 161 157 130 214
t 214 232 130 129
t 233 19 204 13
t 135 192 130 157
t 214 157 130 232
t 135 129 130 228
t 113 114 212 163
t 119 113 65 114
t 158 155 178 212
t 18 42 233 19
t 18 233 42 50
t 154 133 124 135
t 13 204 12 16
t 31 60 59 37
t 70 59 52 71
t 178 185 188 212
t 66 43 205 57
t 54 203 75 51
t 51 203 229 10
t 75 203 229 51
t 3 10 51 23
t 51 10 3 4
t 112 107 108 96
t 227 207 100 105
t 227 105 91 98
t 100 207 227 93
t 227 92 207 98
t 122 217 209 105
t 117 131 217 209
t 115 122 209 105
t 209 138 116 131
t 117 209 116 131
t 215 123 81 207
t 113 123 215 103
t 215 123 113 66
t 110 207 221 81
t 140 134 141 225
t 206 65 225 45
t 140 213 134 176
t 134 141 214 213
t 140 225 141 114
t 141 213 134 140
t 114 65 119 225
t 114 225 119 140
t 155 114 149 212
t 180 174 164 144
t 174 153 144 170
